# xmcd CD database file
#
# Track frame offsets:
#	150
#	23286
#	37002
#	50657
#	67938
#	83601
#	101478
#	115330
#	132193
#	147325
#	166320
#	182030
#
# Disc length: 2673 seconds
#
# Revision: 1
# Processed by: cddbd v1.5.1PL2 Copyright (c) Steve Scherf et al.
# Submitted via: CDex 1.51
#
DISCID=980a6f0c
DTITLE=Ida Corr - Streetdiva
DYEAR=2005
DGENRE=R&B
TTITLE0=Mad
TTITLE1=Country Girl
TTITLE2=Could This Be Love
TTITLE3=Hang Over Time
TTITLE4=Make Them Beg
TTITLE5=Party
TTITLE6=U Make Me Wanna
TTITLE7=King Of Misery
TTITLE8=Hey U
TTITLE9=Mr. JB
TTITLE10=Quiet
TTITLE11=Lulleby
EXTD=YEAR: 2005
EXTT0=
EXTT1=
EXTT2=
EXTT3=
EXTT4=
EXTT5=
EXTT6=
EXTT7=
EXTT8=
EXTT9=
EXTT10=
EXTT11=
PLAYORDER=
